# xmcd CD database file
#
# Track frame offsets:
#	150
#	18817
#	39431
#	52133
#	72549
#	95005
#	115681
#	137036
#	153632
#	167853
#	189245
#	210746
#
# Disc length: 3280 seconds
#
# Revision: 0
# Processed by: cddbd v1.5.2PL0 Copyright (c) Steve Scherf et al.
# Submitted via: CDex 1.70beta2
#
DISCID=a80cce0c
DTITLE=Julian and Roman Wasserfuhr - Relaxin' in Ireland
DYEAR=2018
DGENRE=Jazz
TTITLE0=Cello Bello
TTITLE1=Drunken Sailor
TTITLE2=Lettercollum
TTITLE3=Moondance
TTITLE4=Knot in the Belly
TTITLE5=Moon over Ireland
TTITLE6=Später Bess
TTITLE7=Clair
TTITLE8=Schnaff
TTITLE9=Tears
TTITLE10=Lost in Time
TTITLE11=You Are a Friend of Mine
EXTD=YEAR: 2018
EXTT0=
EXTT1=
EXTT2=
EXTT3=
EXTT4=
EXTT5=
EXTT6=
EXTT7=
EXTT8=
EXTT9=
EXTT10=
EXTT11=
PLAYORDER=
